<?xml version="1.0" standalone="no"?>
<!DOCTYPE svg PUBLIC "-//W3C//DTD SVG 20010904//EN"
 "http://www.w3.org/TR/2001/REC-SVG-20010904/DTD/svg10.dtd">
<svg version="1.0" xmlns="http://www.w3.org/2000/svg"
 width="261.000000pt" height="261.000000pt" viewBox="0 0 261.000000 261.000000"
 preserveAspectRatio="xMidYMid meet">
<metadata>
Created by potrace 1.11, written by Peter Selinger 2001-2013
</metadata>
<g transform="translate(0.000000,261.000000) scale(0.100000,-0.100000)"
fill="#000000" stroke="none">
<path d="M2062 1950 c-5 -3 -8 -51 -7 -107 l1 -103 -72 0 -73 0 -3 -32 c-2
-18 -1 -59 0 -90 l4 -58 71 0 72 0 0 -247 c-1 -252 9 -354 39 -410 25 -46 77
-94 125 -116 95 -42 256 -30 324 23 26 20 26 23 12 51 -9 16 -15 30 -15 31 1
3 -8 32 -22 70 l-10 26 -41 -18 c-49 -22 -113 -20 -150 5 -46 30 -50 59 -51
329 l0 251 120 3 120 3 1 89 1 90 -119 0 c-88 0 -119 3 -120 13 -1 6 -2 55 -2
107 l-2 94 -98 1 c-54 1 -101 -2 -105 -5z"/>
<path d="M402 1734 c-68 -18 -102 -36 -146 -77 l-36 -34 -2 31 c0 17 0 43 1
59 l2 27 -100 0 c-74 0 -101 -3 -102 -12 -1 -16 0 -905 0 -935 1 -22 4 -23
105 -23 l104 0 1 278 c1 152 4 291 7 307 8 50 43 112 80 144 83 73 238 75 307
3 59 -62 62 -79 65 -419 l3 -313 105 0 104 0 0 303 c0 166 -5 331 -10 367 -21
130 -88 224 -196 275 -49 24 -74 29 -149 31 -54 2 -111 -3 -143 -12z"/>
<path d="M1352 1739 c-160 -31 -264 -140 -267 -278 -1 -36 2 -82 8 -102 16
-67 97 -144 172 -164 17 -4 35 -9 40 -11 6 -2 24 -6 40 -9 220 -45 267 -60
283 -93 20 -38 -10 -105 -56 -124 -15 -6 -63 -12 -108 -14 -91 -4 -190 18
-275 61 -26 14 -51 25 -53 25 -10 0 -76 -154 -72 -167 8 -19 111 -62 203 -83
114 -27 281 -22 366 10 76 29 135 75 172 135 27 44 30 56 30 134 0 75 -3 92
-27 132 -49 84 -113 114 -327 154 -89 17 -159 44 -179 68 -7 9 -12 32 -10 53
2 29 11 44 41 68 36 28 44 31 127 32 97 2 156 -11 227 -51 l44 -24 40 85 c21
47 39 88 39 91 0 7 -91 45 -145 60 -60 17 -253 24 -313 12z"/>
</g>
</svg>
